# Blender v2.79 (sub 0) OBJ File: 'simple-cube.blend'
# www.blender.org
o Cube_Cube.001
v 0.499468 -0.499468 -0.499468
v 0.499468 0.499468 -0.499468
v 0.499468 -0.499468 0.499468
v 0.499468 0.499468 0.499468
v -0.499468 -0.499468 -0.499468
v -0.499468 0.499468 -0.499468
v -0.499468 -0.499468 0.499468
v -0.499468 0.499468 0.499468
vt 1.000000 1.000000
vt -0.000000 1.000000
vt 0.000000 -0.000000
vt 1.000000 0.000000
vt 0.000000 -0.000000
vt 1.000000 0.000000
vt 1.000000 1.000000
vt -0.000000 1.000000
vt 0.000000 1.000000
vt -0.000000 0.000000
vt 1.000000 -0.000000
vt 1.000000 1.000000
vt 1.000000 -0.000000
vt 1.000000 1.000000
vt 0.000000 1.000000
vt -0.000000 0.000000
vt 1.000000 0.000000
vt 1.000000 1.000000
vt -0.000000 1.000000
vt 0.000000 -0.000000
vn 0.0000 1.0000 0.0000
vn 0.0000 -1.0000 0.0000
vn -1.0000 0.0000 0.0000
vn 1.0000 0.0000 0.0000
vn 0.0000 0.0000 1.0000
vn 0.0000 0.0000 -1.0000
g Cube_Cube.001_top
s off
f 8/1/1 4/2/1 2/3/1 6/4/1
g Cube_Cube.001_bottom
f 3/5/2 7/6/2 5/7/2 1/8/2
g Cube_Cube.001_right
f 7/6/3 8/1/3 6/9/3 5/10/3
g Cube_Cube.001_left
f 1/11/4 2/12/4 4/2/4 3/5/4
g Cube_Cube.001_back
f 3/13/5 4/14/5 8/15/5 7/16/5
g Cube_Cube.001_front
f 5/17/6 6/18/6 2/19/6 1/20/6
